<svg width="24" height="24" viewBox="0 0 24 24" xmlns="http://www.w3.org/2000/svg">
    <g fill="none" fill-rule="evenodd">
        <path d="M0 0h24v24H0z"/>
        <rect class="outline" fill="#FFF" fill-rule="nonzero" width="24" height="24" rx="3.5"/>
        <rect fill="#FFF" fill-rule="nonzero" x="2" y="2" width="20" height="20" rx="1.5"/>
        <rect class="checkmark" fill="#177991" fill-rule="nonzero" x="2" y="2" width="20" height="20" rx="1.5"/>
        <path d="M20.5 2A1.5 1.5 0 0 1 22 3.5v17a1.5 1.5 0 0 1-1.5 1.5h-17A1.5 1.5 0 0 1 2 20.5v-17A1.5 1.5 0 0 1 3.5 2h17zm0 1.5h-17v17h17v-17z" fill="#177991" fill-rule="nonzero"/>
        <path fill="#FFF" fill-rule="nonzero" d="m10 17-5-5 1.41-1.41L10 14.17l7.59-7.59L19 8z"/>
    </g>
</svg>
