<svg width="21" height="16" viewBox="0 0 21 16" xmlns="http://www.w3.org/2000/svg">
    <g fill-rule="nonzero" fill="none">
        <path d="M0 0h21v16H0z"/>
        <path d="M19.255.25c.751 0 1.36.609 1.36 1.36v12.78a1.36 1.36 0 0 1-1.36 1.36H1.735a1.36 1.36 0 0 1-1.36-1.36V1.61C.375.859.984.25 1.735.25zm0 .75H1.735a.61.61 0 0 0-.62.61v12.78a.61.61 0 0 0 .62.61h17.52a.61.61 0 0 0 .62-.61V1.61a.61.61 0 0 0-.62-.61z" fill="#000"/>
        <path d="M10.5 8.25a4.25 4.25 0 0 1 4.132 5.25H6.368A4.25 4.25 0 0 1 10.5 8.25z" fill="#BCBCBC"/>
        <path d="M10.5 8.25a4.25 4.25 0 0 1 4.132 5.25l-1.04.001a3.25 3.25 0 1 0-6.186 0H6.37A4.25 4.25 0 0 1 10.5 8.25zm7.978 3.65a8.113 8.113 0 0 1 0 1.2h-2.51a5.561 5.561 0 0 0 0-1.2h2.51zm-13.446 0a5.561 5.561 0 0 0 0 1.2h-2.51a8.113 8.113 0 0 1 0-1.2h2.51zM3.891 7.99l2.174 1.256c-.236.322-.439.67-.601 1.04L3.289 9.031c.117-.242.245-.477.385-.705l.217-.335zm13.219.002c.225.33.426.676.6 1.039l-2.174 1.255a5.494 5.494 0 0 0-.6-1.039l2.174-1.255zM13.97 5.29c.363.175.71.376 1.04.602l-1.255 2.174a5.494 5.494 0 0 0-1.04-.602L13.97 5.29zm-6.94 0 1.256 2.174c-.37.162-.718.365-1.04.601L5.991 5.891a8 8 0 0 1 .682-.418l.358-.184zm3.47-.79c.202 0 .402.007.6.022v2.51a5.561 5.561 0 0 0-1.2 0v-2.51c.198-.015.398-.022.6-.022z" fill="#000"/>
    </g>
</svg>
