<svg width="20" height="20" viewBox="0 0 20 20" xmlns="http://www.w3.org/2000/svg">
    <g fill="none" fill-rule="evenodd">
        <path d="M0 0h20v20H0z"/>
        <path d="M10 2C6.98 2 4.5 4.283 4.5 7.538c0 1.162.283 1.97.806 2.866l4.324 7.384c.074.131.216.212.37.212s.296-.08.37-.212l4.324-7.384c.523-.895.806-1.704.806-2.866C15.5 4.283 13.019 2 10 2zm0 2.872c1.402 0 2.538 1.102 2.538 2.461 0 1.36-1.136 2.462-2.538 2.462S7.46 8.693 7.46 7.333 8.598 4.872 10 4.872z" fill="#177991" fill-rule="nonzero"/>
    </g>
</svg>
